<svg xmlns="http://www.w3.org/2000/svg" version="1.1" preserveAspectRatio="none"
  viewBox="468.6667 243.7273 380 94.3787" width="417" height="103.56820499999999" x="0" y="0">
  <defs />
  <style>.companyName7ae4d3ec-33d2-48f5-b78f-da84de7f057c
    {fill:#2C3C5B;fill-opacity:1;}.icon3-str7ae4d3ec-33d2-48f5-b78f-da84de7f057c
    {stroke:#151F35;stroke-opacity:1;}.text7ae4d3ec-33d2-48f5-b78f-da84de7f057c
    {fill:#2C3C5B;fill-opacity:1;}</style>
  <g opacity="1" transform="rotate(0 469.3521 243.7273)">
    <svg x="469.3521" y="243.7273" version="1.1"
      preserveAspectRatio="none" viewBox="-0.2 -28.4 233.16 36.4">
      <g transform="matrix(1 0 0 1 0 0)" class="companyName7ae4d3ec-33d2-48f5-b78f-da84de7f057c">
        <path id="id-7ae4d3ec-33d2-48f5-b78f-da84de7f057cD6z1nYkh11"
          d="M10.20 0.48L10.20 0.48Q6.72 0.48 4.02-0.64Q1.32-1.76-0.20-4.48L-0.20-4.48L4.24-7.96Q5.28-6.28 6.66-5.48Q8.04-4.68 10.20-4.68L10.20-4.68Q12.72-4.68 14.12-5.80Q15.52-6.92 15.52-8.68L15.52-8.68Q15.52-9.96 14.60-10.60Q13.68-11.24 12.32-11.56L12.32-11.56L10.48-11.96Q8.96-12.28 7.72-12.86Q6.48-13.44 5.60-14.34Q4.72-15.24 4.26-16.48Q3.80-17.72 3.80-19.40L3.80-19.40Q3.80-21.32 4.58-22.96Q5.36-24.60 6.76-25.80Q8.16-27 10.16-27.70Q12.16-28.40 14.56-28.40L14.56-28.40Q17.68-28.40 20.18-27.42Q22.68-26.44 24.12-24.52L24.12-24.52L19.92-20.76Q18.96-22.08 17.70-22.66Q16.44-23.24 14.32-23.24L14.32-23.24Q12.16-23.24 10.90-22.32Q9.64-21.40 9.64-19.92L9.64-19.92Q9.64-18.72 10.42-18.12Q11.20-17.52 12.64-17.20L12.64-17.20L14.40-16.80Q16-16.44 17.32-15.84Q18.64-15.24 19.56-14.34Q20.48-13.44 21-12.20Q21.52-10.96 21.52-9.32L21.52-9.32Q21.52-7.52 20.74-5.76Q19.96-4 18.50-2.62Q17.04-1.24 14.94-0.38Q12.84 0.48 10.20 0.48Z M34.24 0L30.72 0Q25.80 0 25.80-3.96L25.80-3.96Q25.80-4.28 25.84-4.76Q25.88-5.24 25.96-5.68L25.96-5.68L28.12-16.52L25.16-16.52L26.04-21L27.48-21Q28.76-21 29.20-21.52Q29.64-22.04 29.84-23.12L29.84-23.12L30.56-26.68L35.76-26.68L34.64-21L38.84-21L37.92-16.52L33.72-16.52L31.32-4.48L35.12-4.48L34.24 0Z M58.32 0L54.60 0Q53.08 0 52.08-0.80Q51.08-1.60 51.08-3.08L51.08-3.08Q51.08-3.40 51.12-3.76Q51.16-4.12 51.20-4.28L51.20-4.28L51.32-4.88L51.08-4.88Q49.84-2.32 48.28-0.92Q46.72 0.48 44.24 0.48L44.24 0.48Q42.76 0.48 41.70-0.06Q40.64-0.60 39.96-1.58Q39.28-2.56 38.96-3.90Q38.64-5.24 38.64-6.80L38.64-6.80Q38.64-10.16 39.42-12.86Q40.20-15.56 41.52-17.48Q42.84-19.40 44.62-20.44Q46.40-21.48 48.40-21.48L48.40-21.48Q50.60-21.48 52.02-20.28Q53.44-19.08 53.64-17.36L53.64-17.36L53.84-17.36L54.56-21L60.16-21L56.84-4.48L59.20-4.48L58.32 0ZM47-4.12L47-4.12Q48.08-4.12 48.96-4.68Q49.84-5.24 50.48-6.04L50.48-6.04Q51.16-6.84 51.66-7.94Q52.16-9.04 52.40-10.20L52.40-10.20L53.04-13.40Q53.36-14.88 52.44-15.88Q51.52-16.88 49.76-16.88L49.76-16.88Q46.12-16.88 45.16-12.20L45.16-12.20L44.60-9.40Q44.52-8.96 44.44-8.28Q44.36-7.60 44.36-7.12L44.36-7.12Q44.36-5.72 45.06-4.92Q45.76-4.12 47-4.12Z M67.20 0L61.60 0L65.80-21L71.40-21L70.36-15.76L70.64-15.76Q70.96-16.60 71.54-17.54Q72.12-18.48 72.90-19.24Q73.68-20 74.70-20.50Q75.72-21 76.92-21L76.92-21L77.92-21L76.80-15.56L75.40-15.56Q72.72-15.56 71.32-14.58Q69.92-13.60 69.40-11.04L69.40-11.04L67.20 0Z M88.16 0L84.64 0Q79.72 0 79.72-3.96L79.72-3.96Q79.72-4.28 79.76-4.76Q79.80-5.24 79.88-5.68L79.88-5.68L82.04-16.52L79.08-16.52L79.96-21L81.40-21Q82.68-21 83.12-21.52Q83.56-22.04 83.76-23.12L83.76-23.12L84.48-26.68L89.68-26.68L88.56-21L92.76-21L91.84-16.52L87.64-16.52L85.24-4.48L89.04-4.48L88.16 0Z M96.08-21L101.68-21L99.20-8.52Q99.08-7.96 99-7.40Q98.92-6.84 98.92-6.40L98.92-6.40Q98.92-5.36 99.38-4.78Q99.84-4.20 100.88-4.20L100.88-4.20Q101.92-4.20 102.74-4.74Q103.56-5.28 104.24-6.12L104.24-6.12Q105.68-7.88 106.16-10.20L106.16-10.20L108.32-21L113.92-21L110.60-4.48L112.96-4.48L112.08 0L108.36 0Q106.84 0 105.84-0.80Q104.84-1.60 104.84-3.08L104.84-3.08Q104.84-3.40 104.88-3.76Q104.92-4.12 104.96-4.28L104.96-4.28L105.08-4.88L104.84-4.88Q103.68-2.40 102.08-0.96Q100.48 0.48 98.08 0.48L98.08 0.48Q95.68 0.48 94.40-0.94Q93.12-2.36 93.12-4.96L93.12-4.96Q93.12-5.76 93.22-6.48Q93.32-7.20 93.48-8L93.48-8L96.08-21Z M113.76 8L119.56-21L125.16-21L124.20-16.12L124.44-16.12Q125.68-18.68 127.24-20.08Q128.80-21.48 131.28-21.48L131.28-21.48Q132.76-21.48 133.82-20.94Q134.88-20.40 135.56-19.42Q136.24-18.44 136.56-17.10Q136.88-15.76 136.88-14.20L136.88-14.20Q136.88-10.84 136.10-8.14Q135.32-5.44 134-3.52Q132.68-1.60 130.90-0.56Q129.12 0.48 127.12 0.48L127.12 0.48Q124.92 0.48 123.50-0.72Q122.08-1.92 121.88-3.64L121.88-3.64L121.68-3.64L119.36 8L113.76 8ZM125.76-4.12L125.76-4.12Q129.40-4.12 130.36-8.80L130.36-8.80L130.92-11.60Q131-12.04 131.08-12.72Q131.16-13.40 131.16-13.88L131.16-13.88Q131.16-15.28 130.46-16.08Q129.76-16.88 128.52-16.88L128.52-16.88Q127.44-16.88 126.56-16.32Q125.68-15.76 125.04-14.96L125.04-14.96Q124.36-14.16 123.86-13.06Q123.36-11.96 123.12-10.80L123.12-10.80L122.48-7.60Q122.16-6 123.08-5.06Q124-4.12 125.76-4.12Z M159.40-22.80L152.04-22.80L147.48 0L141.68 0L146.24-22.80L138.88-22.80L139.92-27.92L160.44-27.92L159.40-22.80Z M165.60 0.48L165.60 0.48Q161.12 0.48 158.92-1.94Q156.72-4.36 156.72-8.56L156.72-8.56Q156.72-11.08 157.52-13.42Q158.32-15.76 159.80-17.54Q161.28-19.32 163.40-20.40Q165.52-21.48 168.12-21.48L168.12-21.48Q169.32-21.48 170.64-21.20Q171.96-20.92 173.06-20.26Q174.16-19.60 174.90-18.48Q175.64-17.36 175.64-15.64L175.64-15.64Q175.64-14 174.88-12.70Q174.12-11.40 172.52-10.46Q170.92-9.52 168.40-8.98Q165.88-8.44 162.36-8.32L162.36-8.32Q162.28-7.96 162.28-7.76Q162.28-7.56 162.28-7.40L162.28-7.40Q162.28-5.88 163.10-4.96Q163.92-4.04 166-4.04L166-4.04Q167.36-4.04 168.54-4.62Q169.72-5.20 171.12-6.96L171.12-6.96L174.56-4.24Q172.60-1.64 170.46-0.58Q168.32 0.48 165.60 0.48ZM167.80-17.20L167.80-17.20Q166-17.20 164.74-16.02Q163.48-14.84 163.12-12.80L163.12-12.80L162.96-11.88Q165.20-12 166.62-12.28Q168.04-12.56 168.84-12.98Q169.64-13.40 169.92-13.92Q170.20-14.44 170.20-15.08L170.20-15.08Q170.20-15.76 169.96-16.18Q169.72-16.60 169.36-16.82Q169-17.04 168.58-17.12Q168.16-17.20 167.80-17.20Z M197 0L193.28 0Q191.76 0 190.76-0.80Q189.76-1.60 189.76-3.08L189.76-3.08Q189.76-3.40 189.80-3.76Q189.84-4.12 189.88-4.28L189.88-4.28L190.00-4.88L189.76-4.88Q188.52-2.32 186.96-0.92Q185.40 0.48 182.92 0.48L182.92 0.48Q181.44 0.48 180.38-0.06Q179.32-0.60 178.64-1.58Q177.96-2.56 177.64-3.90Q177.32-5.24 177.32-6.80L177.32-6.80Q177.32-10.16 178.10-12.86Q178.88-15.56 180.20-17.48Q181.52-19.40 183.30-20.44Q185.08-21.48 187.08-21.48L187.08-21.48Q189.28-21.48 190.70-20.28Q192.12-19.08 192.32-17.36L192.32-17.36L192.52-17.36L193.24-21L198.84-21L195.52-4.48L197.88-4.48L197 0ZM185.68-4.12L185.68-4.12Q186.76-4.12 187.64-4.68Q188.52-5.24 189.16-6.04L189.16-6.04Q189.84-6.84 190.34-7.94Q190.84-9.04 191.08-10.20L191.08-10.20L191.72-13.40Q192.04-14.88 191.12-15.88Q190.20-16.88 188.44-16.88L188.44-16.88Q184.80-16.88 183.84-12.20L183.84-12.20L183.28-9.40Q183.20-8.96 183.12-8.28Q183.04-7.60 183.04-7.12L183.04-7.12Q183.04-5.72 183.74-4.92Q184.44-4.12 185.68-4.12Z M205.88 0L200.28 0L204.48-21L210.08-21L209.12-16.12L209.36-16.12Q210.52-18.60 212.12-20.04Q213.72-21.48 216.12-21.48L216.12-21.48Q218.48-21.48 219.72-20.06Q220.96-18.64 221.00-16.12L221.00-16.12L221.20-16.12Q222.36-18.48 224.00-19.98Q225.64-21.48 228.16-21.48L228.16-21.48Q230.48-21.48 231.70-20.06Q232.92-18.64 232.92-16.16L232.92-16.16Q232.92-15.24 232.78-14.34Q232.64-13.44 232.44-12.52L232.44-12.52L230.84-4.48L232.96-4.48L232.08 0L228.44 0Q226.84 0 225.96-0.82Q225.08-1.64 225.08-3.04L225.08-3.04Q225.08-3.40 225.12-3.70Q225.16-4 225.20-4.16L225.20-4.16L226.84-12.48Q226.96-13.04 227.06-13.60Q227.16-14.16 227.16-14.68L227.16-14.68Q227.16-15.64 226.74-16.22Q226.32-16.80 225.40-16.80L225.40-16.80Q224.48-16.80 223.64-16.26Q222.80-15.72 222.12-14.92L222.12-14.92Q221.44-14.12 220.92-13Q220.40-11.88 220.20-10.80L220.20-10.80L218.04 0L212.44 0L214.92-12.48Q215.04-13.04 215.12-13.60Q215.20-14.16 215.20-14.64L215.20-14.64Q215.20-15.64 214.78-16.22Q214.36-16.80 213.32-16.80L213.32-16.80Q212.28-16.80 211.46-16.26Q210.64-15.72 209.96-14.88L209.96-14.88Q208.52-13.12 208.04-10.80L208.04-10.80L205.88 0Z" />
      </g>
    </svg>
  </g>
</svg>