<svg xmlns="http://www.w3.org/2000/svg" version="1.1" preserveAspectRatio="none"
  viewBox="468.6667 243.7273 380 94.3787" width="417" height="103.56820499999999" x="0" y="0">
  <defs />
  <style>.companyName7ae4d3ec-33d2-48f5-b78f-da84de7f057c
    {fill:#2C3C5B;fill-opacity:1;}.icon3-str7ae4d3ec-33d2-48f5-b78f-da84de7f057c
    {stroke:#151F35;stroke-opacity:1;}.text7ae4d3ec-33d2-48f5-b78f-da84de7f057c
    {fill:#2C3C5B;fill-opacity:1;}</style>
  <g opacity="1" transform="rotate(0 468.6667 318.5997)">
    <svg width="380" height="19.5063" x="468.6667" y="318.5997" version="1.1"
      preserveAspectRatio="none" viewBox="3.56 -30.4 740.12 38">
      <g transform="matrix(1 0 0 1 0 0)" class="text7ae4d3ec-33d2-48f5-b78f-da84de7f057c">
        <path id="id-7ae4d3ec-33d2-48f5-b78f-da84de7f057c6izo4zJp42"
          d="M15.72-14.32Q17.92-13.80 19.34-12.24Q20.76-10.68 20.76-8.32L20.76-8.32Q20.76-4.24 18.24-2.12Q15.72 0 11.52 0L11.52 0L3.56 0L7.04-28.40L13.28-28.40Q17.12-28.40 19.08-26.98Q21.04-25.56 21.04-22.44L21.04-22.44Q21.04-19.68 19.78-17.36Q18.52-15.04 15.72-14.32L15.72-14.32ZM8.80-26.56L7.40-15.12L12.76-15.12Q15.20-15.12 16.58-16.28Q17.96-17.44 18.48-18.98Q19-20.52 19-21.88L19-21.88Q19-24.32 17.50-25.44Q16-26.56 13.12-26.56L13.12-26.56L8.80-26.56ZM11.60-1.80Q15.20-1.80 17-3.66Q18.80-5.52 18.80-8.32L18.80-8.32Q18.80-10.80 16.92-12.10Q15.04-13.40 12.56-13.40L12.56-13.40L7.16-13.40L5.80-1.80L11.60-1.80Z M39.48-15.64L41.36-15.64L39.44 0L37.76 0L38.08-3.44Q37.08-1.76 35.14-0.66Q33.20 0.44 31.08 0.44L31.08 0.44Q29.08 0.44 27.88-0.64Q26.68-1.72 26.68-3.52L26.68-3.52Q26.68-3.92 26.72-4.12L26.72-4.12L28.12-15.64L30-15.64L28.64-4.60Q28.48-3.16 29.34-2.22Q30.20-1.28 31.88-1.20L31.88-1.20Q33.40-1.20 34.84-2Q36.28-2.80 37.26-4.20Q38.24-5.60 38.44-7.32L38.44-7.32L39.48-15.64Z M48.48-15.64L50.36-15.64L48.44 0L46.56 0L48.48-15.64ZM48.68-20.52Q48.68-21.12 49.18-21.54Q49.68-21.96 50.28-21.92L50.28-21.92Q50.80-21.92 51.16-21.52Q51.52-21.12 51.48-20.60L51.48-20.60Q51.44-20 50.98-19.62Q50.52-19.24 49.92-19.24L49.92-19.24Q49.40-19.28 49.04-19.66Q48.68-20.04 48.68-20.52L48.68-20.52Z M59.28-30.40L61.20-30.40L57.44 0L55.56 0L59.28-30.40Z M81.84-30.40L83.76-30.40L79.96 0L78.08 0L78.48-3.08Q77.16-1.44 75.28-0.54Q73.40 0.36 71.32 0.20L71.32 0.20Q69.24 0.12 67.56-0.90Q65.88-1.92 64.94-3.60Q64-5.28 64-7.28L64-7.28Q64-9.72 65.16-11.74Q66.32-13.76 68.34-14.94Q70.36-16.12 72.84-16.12L72.84-16.12Q75.04-16.12 76.86-15.06Q78.68-14 79.64-12.28L79.64-12.28L81.84-30.40ZM78.96-6.92L79.20-8.96Q79-11.24 77.36-12.86Q75.72-14.48 73.32-14.56L73.32-14.56Q71.44-14.68 69.82-13.92Q68.20-13.16 67.18-11.68Q66.16-10.20 65.96-8.24L65.96-8.24L65.92-7.60Q65.92-5.88 66.74-4.46Q67.56-3.04 68.98-2.22Q70.40-1.40 72.20-1.40L72.20-1.40Q74.64-1.40 76.56-2.96Q78.48-4.52 78.96-6.92L78.96-6.92Z M89.08-15.64L90.96-15.64L89.04 0L87.16 0L89.08-15.64ZM89.28-20.52Q89.28-21.12 89.78-21.54Q90.28-21.96 90.88-21.92L90.88-21.92Q91.40-21.92 91.76-21.52Q92.12-21.12 92.08-20.60L92.08-20.60Q92.04-20 91.58-19.62Q91.12-19.24 90.52-19.24L90.52-19.24Q90-19.28 89.64-19.66Q89.28-20.04 89.28-20.52L89.28-20.52Z M106.36-16.08Q108.52-16.08 109.74-14.98Q110.96-13.88 110.96-12.04L110.96-12.04Q110.96-11.60 110.92-11.40L110.92-11.40L109.52 0L107.64 0L108.96-10.92L109-11.40Q109-12.76 108.10-13.58Q107.20-14.40 105.60-14.40L105.60-14.40Q103.12-14.40 101.24-12.68Q99.36-10.96 99.08-8.36L99.08-8.36L98.04 0L96.16 0L98.08-15.64L99.72-15.64L99.56-12.68Q100.68-14.24 102.44-15.16Q104.20-16.08 106.36-16.08L106.36-16.08Z M132.40-15.64L134.04-15.64L132 0.80Q131.64 3.80 129.50 5.70Q127.36 7.60 123.52 7.60L123.52 7.60Q121.20 7.60 119.40 6.84Q117.60 6.08 115.80 4.08L115.80 4.08L117.08 2.84Q118.68 4.64 120.24 5.28Q121.80 5.92 123.64 5.92L123.64 5.92Q126.68 5.92 128.22 4.46Q129.76 3 130.12 0.52L130.12 0.52L130.60-3.16Q129.48-1.56 127.64-0.64Q125.80 0.28 123.68 0.28L123.68 0.28Q121.52 0.28 119.76-0.72Q118-1.72 117.02-3.50Q116.04-5.28 116.04-7.52L116.04-7.52Q116.04-9.28 116.96-11.26Q117.88-13.24 119.84-14.66Q121.80-16.08 124.72-16.08L124.72-16.08Q127.16-16.08 129.04-15Q130.92-13.92 131.68-12.12L131.68-12.12L132.40-15.64ZM131.04-6.68L131.32-9Q131.12-11.36 129.34-12.94Q127.56-14.52 125.04-14.52L125.04-14.52Q122.56-14.52 120.96-13.36Q119.36-12.20 118.66-10.56Q117.96-8.92 117.96-7.52L117.96-7.52Q117.96-5.76 118.76-4.36Q119.56-2.96 120.98-2.14Q122.40-1.32 124.20-1.32L124.20-1.32Q126.64-1.32 128.60-2.86Q130.56-4.40 131.04-6.68L131.04-6.68Z M152.20 0L155.68-28.40L162.20-28.40Q169.84-28.40 173.12-24.66Q176.40-20.92 176.16-15.16L176.16-15.16Q176.04-10.40 173.90-6.98Q171.76-3.56 168.14-1.78Q164.52 0 160.08 0L160.08 0L152.20 0ZM154.36-1.88L160.24-1.88Q164.20-1.88 167.36-3.48Q170.52-5.08 172.36-8.22Q174.20-11.36 174.20-15.80L174.20-15.80Q174.20-20.76 171.30-23.62Q168.40-26.48 162.68-26.48L162.68-26.48L157.36-26.48L154.36-1.88Z M184.32-15.64L183.88-11.48Q184.88-13.60 186.92-14.82Q188.96-16.04 191.12-16.08L191.12-16.08L190.84-14.24Q189.08-14.24 187.50-13.46Q185.92-12.68 184.88-11.30Q183.84-9.92 183.68-8.28L183.68-8.28L182.64 0L180.76 0L182.68-15.64L184.32-15.64Z M201.32-1.32Q203.68-1.32 205.60-2.80L205.60-2.80L206.40-1.36Q205.24-0.56 203.88-0.14Q202.52 0.28 201.16 0.28L201.16 0.28Q198.84 0.28 197.04-0.70Q195.24-1.68 194.24-3.44Q193.24-5.20 193.24-7.44L193.24-7.44Q193.24-9.68 194.36-11.66Q195.48-13.64 197.48-14.86Q199.48-16.08 202.00-16.08L202.00-16.08Q204.88-16.08 206.80-14.48Q208.72-12.88 209.36-9.76L209.36-9.76L195.48-5.44Q196.08-3.60 197.66-2.46Q199.24-1.32 201.32-1.32L201.32-1.32ZM201.96-14.52Q200.04-14.52 198.48-13.58Q196.92-12.64 196.02-11.06Q195.12-9.48 195.12-7.64L195.12-7.64Q195.12-7.12 195.16-6.88L195.16-6.88L207.16-10.60Q206.56-12.32 205.20-13.42Q203.84-14.52 201.96-14.52L201.96-14.52Z M228.92-15.64L230.56-15.64L228.68 0L226.80 0L227.20-3.16Q226.12-1.72 224.20-0.74Q222.28 0.24 219.96 0.24L219.96 0.24Q217.96 0.24 216.32-0.74Q214.68-1.72 213.72-3.46Q212.76-5.20 212.76-7.32L212.76-7.32Q212.76-9.32 213.72-11.36Q214.68-13.40 216.62-14.76Q218.56-16.12 221.40-16.12L221.40-16.12Q223.88-16.12 225.68-14.98Q227.48-13.84 228.28-11.92L228.28-11.92L228.92-15.64ZM227.64-6.76L227.88-9.04Q227.68-11.36 225.92-12.94Q224.16-14.52 221.64-14.52L221.64-14.52Q219.28-14.52 217.72-13.38Q216.16-12.24 215.44-10.62Q214.72-9 214.72-7.52L214.72-7.52Q214.72-5.80 215.52-4.38Q216.32-2.96 217.74-2.14Q219.16-1.32 220.96-1.32L220.96-1.32Q223.40-1.32 225.28-2.84Q227.16-4.36 227.64-6.76L227.64-6.76Z M257.24-16.08Q259.28-16.08 260.44-14.96Q261.60-13.84 261.60-12L261.60-12Q261.60-11.60 261.56-11.40L261.56-11.40L260.20 0L258.28 0L259.64-11Q259.76-12.44 259.02-13.38Q258.28-14.32 256.76-14.40L256.76-14.40Q255.12-14.40 253.66-13.62Q252.20-12.84 251.22-11.50Q250.24-10.16 250.00-8.56L250.00-8.56L248.96 0L247.04 0L248.40-11Q248.52-12.44 247.76-13.38Q247.00-14.32 245.48-14.40L245.48-14.40Q243.84-14.40 242.36-13.60Q240.88-12.80 239.90-11.42Q238.92-10.04 238.72-8.40L238.72-8.40L237.68 0L235.80 0L237.72-15.64L239.36-15.64L239.12-12.48Q240.32-14.16 242.14-15.12Q243.96-16.08 246.08-16.08L246.08-16.08Q247.96-16.08 249.08-15.14Q250.20-14.20 250.40-12.52L250.40-12.52Q251.60-14.16 253.40-15.12Q255.20-16.08 257.24-16.08L257.24-16.08Z M271.52 0.32Q269.92 0.32 268.42-0.26Q266.92-0.84 266-2.16L266-2.16L267-3.32Q267.80-2.24 268.98-1.74Q270.16-1.24 271.52-1.24L271.52-1.24Q273.08-1.24 274.04-2.16Q275-3.08 275-4.12L275-4.12Q275-5.08 274.48-5.68Q273.96-6.28 273.34-6.60Q272.72-6.92 271.24-7.52L271.24-7.52Q269.60-8.16 268.70-9.10Q267.80-10.04 267.80-11.48L267.80-11.48Q267.80-12.56 268.38-13.60Q268.96-14.64 270.08-15.30Q271.20-15.96 272.68-15.96L272.68-15.96Q273.64-15.96 275.06-15.56Q276.48-15.16 277.56-13.92L277.56-13.92L276.60-12.64Q275.96-13.60 274.92-14Q273.88-14.40 272.76-14.40L272.76-14.40Q271.40-14.40 270.58-13.60Q269.76-12.80 269.76-11.84L269.76-11.84Q269.80-10.68 270.56-10.08Q271.32-9.48 272.92-8.80L272.92-8.80Q274.92-7.96 275.92-7.04Q276.92-6.12 276.92-4.32L276.92-4.32Q276.92-3.40 276.42-2.32Q275.92-1.24 274.72-0.46Q273.52 0.32 271.52 0.32L271.52 0.32Z M315.76-1.28Q312.40 0.48 308.60 0.48L308.60 0.48Q304.88 0.48 301.76-1.14Q298.64-2.76 296.82-5.78Q295-8.80 295-12.80L295-12.80Q295-16.48 296.54-20.08Q298.08-23.68 301.50-26.08Q304.92-28.48 310.24-28.48L310.24-28.48Q312.64-28.48 314.78-27.76Q316.92-27.04 318.64-25.84L318.64-25.84L317.60-24.12Q316.12-25.24 314.18-25.92Q312.24-26.60 310.12-26.60L310.12-26.60Q305.68-26.60 302.74-24.62Q299.80-22.64 298.40-19.52Q297-16.40 297-12.92L297-12.92Q297-9.56 298.54-6.94Q300.08-4.32 302.72-2.86Q305.36-1.40 308.64-1.40L308.64-1.40Q311.60-1.40 315.04-3.04L315.04-3.04L315.76-1.28Z M329.28 0.32Q327.16 0.32 325.34-0.62Q323.52-1.56 322.44-3.30Q321.36-5.04 321.36-7.32L321.36-7.32Q321.36-9.44 322.32-11.46Q323.28-13.48 325.26-14.78Q327.24-16.08 330.16-16.08L330.16-16.08Q332.32-16.08 334.14-15.12Q335.96-14.16 337.02-12.42Q338.08-10.68 338.08-8.48L338.08-8.48Q338.08-6.40 337.14-4.38Q336.20-2.36 334.22-1.02Q332.24 0.32 329.28 0.32L329.28 0.32ZM329.36-1.28Q331.60-1.28 333.14-2.32Q334.68-3.36 335.42-4.98Q336.16-6.60 336.16-8.36L336.16-8.36Q336.16-10.16 335.32-11.56Q334.48-12.96 333.10-13.72Q331.72-14.48 330.08-14.48L330.08-14.48Q327.88-14.48 326.34-13.44Q324.80-12.40 324.04-10.78Q323.28-9.16 323.28-7.40L323.28-7.40Q323.28-5.64 324.10-4.24Q324.92-2.84 326.32-2.06Q327.72-1.28 329.36-1.28L329.36-1.28Z M346.44-30.40L348.36-30.40L344.60 0L342.72 0L346.44-30.40Z M355.48-30.40L357.40-30.40L353.64 0L351.76 0L355.48-30.40Z M376.36-15.64L378.00-15.64L376.12 0L374.24 0L374.64-3.16Q373.56-1.72 371.64-0.74Q369.72 0.24 367.40 0.24L367.40 0.24Q365.40 0.24 363.76-0.74Q362.12-1.72 361.16-3.46Q360.20-5.20 360.20-7.32L360.20-7.32Q360.20-9.32 361.16-11.36Q362.12-13.40 364.06-14.76Q366.00-16.12 368.84-16.12L368.84-16.12Q371.32-16.12 373.12-14.98Q374.92-13.84 375.72-11.92L375.72-11.92L376.36-15.64ZM375.08-6.76L375.32-9.04Q375.12-11.36 373.36-12.94Q371.60-14.52 369.08-14.52L369.08-14.52Q366.72-14.52 365.16-13.38Q363.60-12.24 362.88-10.62Q362.16-9 362.16-7.52L362.16-7.52Q362.16-5.80 362.96-4.38Q363.76-2.96 365.18-2.14Q366.60-1.32 368.40-1.32L368.40-1.32Q370.84-1.32 372.72-2.84Q374.60-4.36 375.08-6.76L375.08-6.76Z M393.60-16.08Q396.96-16.08 399.06-14Q401.16-11.92 401.16-8.44L401.16-8.44Q401.16-6.16 400.20-4.18Q399.24-2.20 397.26-0.96Q395.28 0.28 392.40 0.28L392.40 0.28Q390.08 0.28 388.28-0.84Q386.48-1.96 385.56-3.76L385.56-3.76L385.12 0L383.24 0L386.96-30.40L388.84-30.40L386.68-12.76Q387.84-14.28 389.68-15.18Q391.52-16.08 393.60-16.08L393.60-16.08ZM392.32-1.36Q394.76-1.36 396.30-2.42Q397.84-3.48 398.52-5.08Q399.20-6.68 399.20-8.32L399.20-8.32Q399.20-11.08 397.54-12.82Q395.88-14.56 393.00-14.56L393.00-14.56Q390.68-14.56 388.84-13.20Q387.00-11.84 386.32-9.68L386.32-9.68L385.96-7Q386.24-5 387.70-3.18Q389.16-1.36 392.32-1.36L392.32-1.36Z M413.12 0.32Q411.00 0.32 409.18-0.62Q407.36-1.56 406.28-3.30Q405.20-5.04 405.20-7.32L405.20-7.32Q405.20-9.44 406.16-11.46Q407.12-13.48 409.10-14.78Q411.08-16.08 414.00-16.08L414.00-16.08Q416.16-16.08 417.98-15.12Q419.80-14.16 420.86-12.42Q421.92-10.68 421.92-8.48L421.92-8.48Q421.92-6.40 420.98-4.38Q420.04-2.36 418.06-1.02Q416.08 0.32 413.12 0.32L413.12 0.32ZM413.20-1.28Q415.44-1.28 416.98-2.32Q418.52-3.36 419.26-4.98Q420.00-6.60 420.00-8.36L420.00-8.36Q420.00-10.16 419.16-11.56Q418.32-12.96 416.94-13.72Q415.56-14.48 413.92-14.48L413.92-14.48Q411.72-14.48 410.18-13.44Q408.64-12.40 407.88-10.78Q407.12-9.16 407.12-7.40L407.12-7.40Q407.12-5.64 407.94-4.24Q408.76-2.84 410.16-2.06Q411.56-1.28 413.20-1.28L413.20-1.28Z M430.12-15.64L429.68-11.48Q430.68-13.60 432.72-14.82Q434.76-16.04 436.92-16.08L436.92-16.08L436.64-14.24Q434.88-14.24 433.30-13.46Q431.72-12.68 430.68-11.30Q429.64-9.92 429.48-8.28L429.48-8.28L428.44 0L426.56 0L428.48-15.64L430.12-15.64Z M455.64-15.64L457.28-15.64L455.40 0L453.52 0L453.92-3.16Q452.84-1.72 450.92-0.74Q449.00 0.24 446.68 0.24L446.68 0.24Q444.68 0.24 443.04-0.74Q441.40-1.72 440.44-3.46Q439.48-5.20 439.48-7.32L439.48-7.32Q439.48-9.32 440.44-11.36Q441.40-13.40 443.34-14.76Q445.28-16.12 448.12-16.12L448.12-16.12Q450.60-16.12 452.40-14.98Q454.20-13.84 455.00-11.92L455.00-11.92L455.64-15.64ZM454.36-6.76L454.60-9.04Q454.40-11.36 452.64-12.94Q450.88-14.52 448.36-14.52L448.36-14.52Q446.00-14.52 444.44-13.38Q442.88-12.24 442.16-10.62Q441.44-9 441.44-7.52L441.44-7.52Q441.44-5.80 442.24-4.38Q443.04-2.96 444.46-2.14Q445.88-1.32 447.68-1.32L447.68-1.32Q450.12-1.32 452.00-2.84Q453.88-4.36 454.36-6.76L454.36-6.76Z M466.80-22.52L468.72-22.52L467.84-15.44L472.72-15.44L472.52-13.88L467.64-13.88L465.96 0L464.08 0L465.76-13.88L462.40-13.88L462.60-15.44L465.96-15.44L466.80-22.52Z M477.44-15.64L479.32-15.64L477.40 0L475.52 0L477.44-15.64ZM477.64-20.52Q477.64-21.12 478.14-21.54Q478.64-21.96 479.24-21.92L479.24-21.92Q479.76-21.92 480.12-21.52Q480.48-21.12 480.44-20.60L480.44-20.60Q480.40-20 479.94-19.62Q479.48-19.24 478.88-19.24L478.88-19.24Q478.36-19.28 478.00-19.66Q477.64-20.04 477.64-20.52L477.64-20.52Z M497.76-15.64L499.88-15.64L490.12 0.60L489.92 0.60L483.96-15.64L486.16-15.64L490.44-2.92L497.76-15.64Z M510.00-1.32Q512.36-1.32 514.28-2.80L514.28-2.80L515.08-1.36Q513.92-0.56 512.56-0.14Q511.20 0.28 509.84 0.28L509.84 0.28Q507.52 0.28 505.72-0.70Q503.92-1.68 502.92-3.44Q501.92-5.20 501.92-7.44L501.92-7.44Q501.92-9.68 503.04-11.66Q504.16-13.64 506.16-14.86Q508.16-16.08 510.68-16.08L510.68-16.08Q513.56-16.08 515.48-14.48Q517.40-12.88 518.04-9.76L518.04-9.76L504.16-5.44Q504.76-3.60 506.34-2.46Q507.92-1.32 510.00-1.32L510.00-1.32ZM510.64-14.52Q508.72-14.52 507.16-13.58Q505.60-12.64 504.70-11.06Q503.80-9.48 503.80-7.64L503.80-7.64Q503.80-7.12 503.84-6.88L503.84-6.88L515.84-10.60Q515.24-12.32 513.88-13.42Q512.52-14.52 510.64-14.52L510.64-14.52Z M525.76-30.40L527.68-30.40L523.92 0L522.04 0L525.76-30.40Z M544.96-15.64L546.96-15.64L534.04 7.52L531.96 7.52L536.32-0.28L531.04-15.64L533.16-15.64L537.56-2.44L544.96-15.64Z M547.48 7.56L546.56 6.80Q547.68 6.08 548.24 4.72Q548.80 3.36 548.72 1.68L548.72 1.68L550.48 1.72Q550.56 3.48 549.82 5.12Q549.08 6.76 547.48 7.56L547.48 7.56Z M573.52-28.40L591.04-28.40L590.80-26.56L575.28-26.56L573.88-15.20L587.84-15.20L587.60-13.36L573.64-13.36L572.28-1.88L588.36-1.88L588.12 0L570.04 0L573.52-28.40Z M607.88-15.64L610-15.64L600.24 0.60L600.04 0.60L594.08-15.64L596.28-15.64L600.56-2.92L607.88-15.64Z M620.12-1.32Q622.48-1.32 624.40-2.80L624.40-2.80L625.20-1.36Q624.04-0.56 622.68-0.14Q621.32 0.28 619.96 0.28L619.96 0.28Q617.64 0.28 615.84-0.70Q614.04-1.68 613.04-3.44Q612.04-5.20 612.04-7.44L612.04-7.44Q612.04-9.68 613.16-11.66Q614.28-13.64 616.28-14.86Q618.28-16.08 620.80-16.08L620.80-16.08Q623.68-16.08 625.60-14.48Q627.52-12.88 628.16-9.76L628.16-9.76L614.28-5.44Q614.88-3.60 616.46-2.46Q618.04-1.32 620.12-1.32L620.12-1.32ZM620.76-14.52Q618.84-14.52 617.28-13.58Q615.72-12.64 614.82-11.06Q613.92-9.48 613.92-7.64L613.92-7.64Q613.92-7.12 613.96-6.88L613.96-6.88L625.96-10.60Q625.36-12.32 624-13.42Q622.64-14.52 620.76-14.52L620.76-14.52Z M635.72-15.64L635.28-11.48Q636.28-13.60 638.32-14.82Q640.36-16.04 642.52-16.08L642.52-16.08L642.24-14.24Q640.48-14.24 638.90-13.46Q637.32-12.68 636.28-11.30Q635.24-9.92 635.08-8.28L635.08-8.28L634.04 0L632.16 0L634.08-15.64L635.72-15.64Z M659.76-15.64L661.76-15.64L648.84 7.52L646.76 7.52L651.12-0.28L645.84-15.64L647.96-15.64L652.36-2.44L659.76-15.64Z M676.80 0L680.28-28.40L686.80-28.40Q694.44-28.40 697.72-24.66Q701-20.92 700.76-15.16L700.76-15.16Q700.64-10.40 698.50-6.98Q696.36-3.56 692.74-1.78Q689.12 0 684.68 0L684.68 0L676.80 0ZM678.96-1.88L684.84-1.88Q688.80-1.88 691.96-3.48Q695.12-5.08 696.96-8.22Q698.80-11.36 698.80-15.80L698.80-15.80Q698.80-20.76 695.90-23.62Q693-26.48 687.28-26.48L687.28-26.48L681.96-26.48L678.96-1.88Z M720.92-15.64L722.56-15.64L720.68 0L718.80 0L719.20-3.16Q718.12-1.72 716.20-0.74Q714.28 0.24 711.96 0.24L711.96 0.24Q709.96 0.24 708.32-0.74Q706.68-1.72 705.72-3.46Q704.76-5.20 704.76-7.32L704.76-7.32Q704.76-9.32 705.72-11.36Q706.68-13.40 708.62-14.76Q710.56-16.12 713.40-16.12L713.40-16.12Q715.88-16.12 717.68-14.98Q719.48-13.84 720.28-11.92L720.28-11.92L720.92-15.64ZM719.64-6.76L719.88-9.04Q719.68-11.36 717.92-12.94Q716.16-14.52 713.64-14.52L713.64-14.52Q711.28-14.52 709.72-13.38Q708.16-12.24 707.44-10.62Q706.72-9 706.72-7.52L706.72-7.52Q706.72-5.80 707.52-4.38Q708.32-2.96 709.74-2.14Q711.16-1.32 712.96-1.32L712.96-1.32Q715.40-1.32 717.28-2.84Q719.16-4.36 719.64-6.76L719.64-6.76Z M741.68-15.64L743.68-15.64L730.76 7.52L728.68 7.52L733.04-0.28L727.76-15.64L729.88-15.64L734.28-2.44L741.68-15.64Z" />
      </g>
    </svg>
  </g>
  <g opacity="1" transform="rotate(0 469.3521 243.7273)">
    <svg width="378.6291" height="59.1098" x="469.3521" y="243.7273" version="1.1"
      preserveAspectRatio="none" viewBox="-0.2 -28.4 233.16 36.4">
      <g transform="matrix(1 0 0 1 0 0)" class="companyName7ae4d3ec-33d2-48f5-b78f-da84de7f057c">
        <path id="id-7ae4d3ec-33d2-48f5-b78f-da84de7f057cD6z1nYkh11"
          d="M10.20 0.48L10.20 0.48Q6.72 0.48 4.02-0.64Q1.32-1.76-0.20-4.48L-0.20-4.48L4.24-7.96Q5.28-6.28 6.66-5.48Q8.04-4.68 10.20-4.68L10.20-4.68Q12.72-4.68 14.12-5.80Q15.52-6.92 15.52-8.68L15.52-8.68Q15.52-9.96 14.60-10.60Q13.68-11.24 12.32-11.56L12.32-11.56L10.48-11.96Q8.96-12.28 7.72-12.86Q6.48-13.44 5.60-14.34Q4.72-15.24 4.26-16.48Q3.80-17.72 3.80-19.40L3.80-19.40Q3.80-21.32 4.58-22.96Q5.36-24.60 6.76-25.80Q8.16-27 10.16-27.70Q12.16-28.40 14.56-28.40L14.56-28.40Q17.68-28.40 20.18-27.42Q22.68-26.44 24.12-24.52L24.12-24.52L19.92-20.76Q18.96-22.08 17.70-22.66Q16.44-23.24 14.32-23.24L14.32-23.24Q12.16-23.24 10.90-22.32Q9.64-21.40 9.64-19.92L9.64-19.92Q9.64-18.72 10.42-18.12Q11.20-17.52 12.64-17.20L12.64-17.20L14.40-16.80Q16-16.44 17.32-15.84Q18.64-15.24 19.56-14.34Q20.48-13.44 21-12.20Q21.52-10.96 21.52-9.32L21.52-9.32Q21.52-7.52 20.74-5.76Q19.96-4 18.50-2.62Q17.04-1.24 14.94-0.38Q12.84 0.48 10.20 0.48Z M34.24 0L30.72 0Q25.80 0 25.80-3.96L25.80-3.96Q25.80-4.28 25.84-4.76Q25.88-5.24 25.96-5.68L25.96-5.68L28.12-16.52L25.16-16.52L26.04-21L27.48-21Q28.76-21 29.20-21.52Q29.64-22.04 29.84-23.12L29.84-23.12L30.56-26.68L35.76-26.68L34.64-21L38.84-21L37.92-16.52L33.72-16.52L31.32-4.48L35.12-4.48L34.24 0Z M58.32 0L54.60 0Q53.08 0 52.08-0.80Q51.08-1.60 51.08-3.08L51.08-3.08Q51.08-3.40 51.12-3.76Q51.16-4.12 51.20-4.28L51.20-4.28L51.32-4.88L51.08-4.88Q49.84-2.32 48.28-0.92Q46.72 0.48 44.24 0.48L44.24 0.48Q42.76 0.48 41.70-0.06Q40.64-0.60 39.96-1.58Q39.28-2.56 38.96-3.90Q38.64-5.24 38.64-6.80L38.64-6.80Q38.64-10.16 39.42-12.86Q40.20-15.56 41.52-17.48Q42.84-19.40 44.62-20.44Q46.40-21.48 48.40-21.48L48.40-21.48Q50.60-21.48 52.02-20.28Q53.44-19.08 53.64-17.36L53.64-17.36L53.84-17.36L54.56-21L60.16-21L56.84-4.48L59.20-4.48L58.32 0ZM47-4.12L47-4.12Q48.08-4.12 48.96-4.68Q49.84-5.24 50.48-6.04L50.48-6.04Q51.16-6.84 51.66-7.94Q52.16-9.04 52.40-10.20L52.40-10.20L53.04-13.40Q53.36-14.88 52.44-15.88Q51.52-16.88 49.76-16.88L49.76-16.88Q46.12-16.88 45.16-12.20L45.16-12.20L44.60-9.40Q44.52-8.96 44.44-8.28Q44.36-7.60 44.36-7.12L44.36-7.12Q44.36-5.72 45.06-4.92Q45.76-4.12 47-4.12Z M67.20 0L61.60 0L65.80-21L71.40-21L70.36-15.76L70.64-15.76Q70.96-16.60 71.54-17.54Q72.12-18.48 72.90-19.24Q73.68-20 74.70-20.50Q75.72-21 76.92-21L76.92-21L77.92-21L76.80-15.56L75.40-15.56Q72.72-15.56 71.32-14.58Q69.92-13.60 69.40-11.04L69.40-11.04L67.20 0Z M88.16 0L84.64 0Q79.72 0 79.72-3.96L79.72-3.96Q79.72-4.28 79.76-4.76Q79.80-5.24 79.88-5.68L79.88-5.68L82.04-16.52L79.08-16.52L79.96-21L81.40-21Q82.68-21 83.12-21.52Q83.56-22.04 83.76-23.12L83.76-23.12L84.48-26.68L89.68-26.68L88.56-21L92.76-21L91.84-16.52L87.64-16.52L85.24-4.48L89.04-4.48L88.16 0Z M96.08-21L101.68-21L99.20-8.52Q99.08-7.96 99-7.40Q98.92-6.84 98.92-6.40L98.92-6.40Q98.92-5.36 99.38-4.78Q99.84-4.20 100.88-4.20L100.88-4.20Q101.92-4.20 102.74-4.74Q103.56-5.28 104.24-6.12L104.24-6.12Q105.68-7.88 106.16-10.20L106.16-10.20L108.32-21L113.92-21L110.60-4.48L112.96-4.48L112.08 0L108.36 0Q106.84 0 105.84-0.80Q104.84-1.60 104.84-3.08L104.84-3.08Q104.84-3.40 104.88-3.76Q104.92-4.12 104.96-4.28L104.96-4.28L105.08-4.88L104.84-4.88Q103.68-2.40 102.08-0.96Q100.48 0.48 98.08 0.48L98.08 0.48Q95.68 0.48 94.40-0.94Q93.12-2.36 93.12-4.96L93.12-4.96Q93.12-5.76 93.22-6.48Q93.32-7.20 93.48-8L93.48-8L96.08-21Z M113.76 8L119.56-21L125.16-21L124.20-16.12L124.44-16.12Q125.68-18.68 127.24-20.08Q128.80-21.48 131.28-21.48L131.28-21.48Q132.76-21.48 133.82-20.94Q134.88-20.40 135.56-19.42Q136.24-18.44 136.56-17.10Q136.88-15.76 136.88-14.20L136.88-14.20Q136.88-10.84 136.10-8.14Q135.32-5.44 134-3.52Q132.68-1.60 130.90-0.56Q129.12 0.48 127.12 0.48L127.12 0.48Q124.92 0.48 123.50-0.72Q122.08-1.92 121.88-3.64L121.88-3.64L121.68-3.64L119.36 8L113.76 8ZM125.76-4.12L125.76-4.12Q129.40-4.12 130.36-8.80L130.36-8.80L130.92-11.60Q131-12.04 131.08-12.72Q131.16-13.40 131.16-13.88L131.16-13.88Q131.16-15.28 130.46-16.08Q129.76-16.88 128.52-16.88L128.52-16.88Q127.44-16.88 126.56-16.32Q125.68-15.76 125.04-14.96L125.04-14.96Q124.36-14.16 123.86-13.06Q123.36-11.96 123.12-10.80L123.12-10.80L122.48-7.60Q122.16-6 123.08-5.06Q124-4.12 125.76-4.12Z M159.40-22.80L152.04-22.80L147.48 0L141.68 0L146.24-22.80L138.88-22.80L139.92-27.92L160.44-27.92L159.40-22.80Z M165.60 0.48L165.60 0.48Q161.12 0.48 158.92-1.94Q156.72-4.36 156.72-8.56L156.72-8.56Q156.72-11.08 157.52-13.42Q158.32-15.76 159.80-17.54Q161.28-19.32 163.40-20.40Q165.52-21.48 168.12-21.48L168.12-21.48Q169.32-21.48 170.64-21.20Q171.96-20.92 173.06-20.26Q174.16-19.60 174.90-18.48Q175.64-17.36 175.64-15.64L175.64-15.64Q175.64-14 174.88-12.70Q174.12-11.40 172.52-10.46Q170.92-9.52 168.40-8.98Q165.88-8.44 162.36-8.32L162.36-8.32Q162.28-7.96 162.28-7.76Q162.28-7.56 162.28-7.40L162.28-7.40Q162.28-5.88 163.10-4.96Q163.92-4.04 166-4.04L166-4.04Q167.36-4.04 168.54-4.62Q169.72-5.20 171.12-6.96L171.12-6.96L174.56-4.24Q172.60-1.64 170.46-0.58Q168.32 0.48 165.60 0.48ZM167.80-17.20L167.80-17.20Q166-17.20 164.74-16.02Q163.48-14.84 163.12-12.80L163.12-12.80L162.96-11.88Q165.20-12 166.62-12.28Q168.04-12.56 168.84-12.98Q169.64-13.40 169.92-13.92Q170.20-14.44 170.20-15.08L170.20-15.08Q170.20-15.76 169.96-16.18Q169.72-16.60 169.36-16.82Q169-17.04 168.58-17.12Q168.16-17.20 167.80-17.20Z M197 0L193.28 0Q191.76 0 190.76-0.80Q189.76-1.60 189.76-3.08L189.76-3.08Q189.76-3.40 189.80-3.76Q189.84-4.12 189.88-4.28L189.88-4.28L190.00-4.88L189.76-4.88Q188.52-2.32 186.96-0.92Q185.40 0.48 182.92 0.48L182.92 0.48Q181.44 0.48 180.38-0.06Q179.32-0.60 178.64-1.58Q177.96-2.56 177.64-3.90Q177.32-5.24 177.32-6.80L177.32-6.80Q177.32-10.16 178.10-12.86Q178.88-15.56 180.20-17.48Q181.52-19.40 183.30-20.44Q185.08-21.48 187.08-21.48L187.08-21.48Q189.28-21.48 190.70-20.28Q192.12-19.08 192.32-17.36L192.32-17.36L192.52-17.36L193.24-21L198.84-21L195.52-4.48L197.88-4.48L197 0ZM185.68-4.12L185.68-4.12Q186.76-4.12 187.64-4.68Q188.52-5.24 189.16-6.04L189.16-6.04Q189.84-6.84 190.34-7.94Q190.84-9.04 191.08-10.20L191.08-10.20L191.72-13.40Q192.04-14.88 191.12-15.88Q190.20-16.88 188.44-16.88L188.44-16.88Q184.80-16.88 183.84-12.20L183.84-12.20L183.28-9.40Q183.20-8.96 183.12-8.28Q183.04-7.60 183.04-7.12L183.04-7.12Q183.04-5.72 183.74-4.92Q184.44-4.12 185.68-4.12Z M205.88 0L200.28 0L204.48-21L210.08-21L209.12-16.12L209.36-16.12Q210.52-18.60 212.12-20.04Q213.72-21.48 216.12-21.48L216.12-21.48Q218.48-21.48 219.72-20.06Q220.96-18.64 221.00-16.12L221.00-16.12L221.20-16.12Q222.36-18.48 224.00-19.98Q225.64-21.48 228.16-21.48L228.16-21.48Q230.48-21.48 231.70-20.06Q232.92-18.64 232.92-16.16L232.92-16.16Q232.92-15.24 232.78-14.34Q232.64-13.44 232.44-12.52L232.44-12.52L230.84-4.48L232.96-4.48L232.08 0L228.44 0Q226.84 0 225.96-0.82Q225.08-1.64 225.08-3.04L225.08-3.04Q225.08-3.40 225.12-3.70Q225.16-4 225.20-4.16L225.20-4.16L226.84-12.48Q226.96-13.04 227.06-13.60Q227.16-14.16 227.16-14.68L227.16-14.68Q227.16-15.64 226.74-16.22Q226.32-16.80 225.40-16.80L225.40-16.80Q224.48-16.80 223.64-16.26Q222.80-15.72 222.12-14.92L222.12-14.92Q221.44-14.12 220.92-13Q220.40-11.88 220.20-10.80L220.20-10.80L218.04 0L212.44 0L214.92-12.48Q215.04-13.04 215.12-13.60Q215.20-14.16 215.20-14.64L215.20-14.64Q215.20-15.64 214.78-16.22Q214.36-16.80 213.32-16.80L213.32-16.80Q212.28-16.80 211.46-16.26Q210.64-15.72 209.96-14.88L209.96-14.88Q208.52-13.12 208.04-10.80L208.04-10.80L205.88 0Z" />
      </g>
    </svg>
  </g>
</svg>